<svg id="Ebene_1" data-name="Ebene 1" xmlns="http://www.w3.org/2000/svg" viewBox="0 0 22.99 24">
  <defs>
    <style>
      .cls-1 {
        fill: #fff;
      }
    </style>
  </defs>
  <title>509c9139-6f03-47b9-9dd6-bd59e2ce1c9f</title>
  <g>
    <path class="cls-1" d="M11.5,3a10.778,10.778,0,0,1,9.95,6.726c-0.122-.011-0.245-0.017-0.369-0.017a4.038,4.038,0,0,0-3.049,1.406,4.015,4.015,0,0,0-6.532.607,4.015,4.015,0,0,0-6.532-.607A4.038,4.038,0,0,0,1.914,9.709c-0.124,0-.247.006-0.369,0.017A10.778,10.778,0,0,1,11.5,3m0-1A11.737,11.737,0,0,0,0,11.4a3.019,3.019,0,0,1,4.919,1.919H5.007a3.034,3.034,0,0,1,6.009,0h0.959a3.034,3.034,0,0,1,6.009,0h0.088A3.019,3.019,0,0,1,22.99,11.4,11.737,11.737,0,0,0,11.5,2h0Z"/>
    <g>
      <rect class="cls-1" x="11" width="1" height="2"/>
      <path class="cls-1" d="M16,21a2,2,0,1,1-4,0V13H11v8a3,3,0,1,0,6,0H16Z"/>
    </g>
  </g>
</svg>
