<svg id="Ebene_1" data-name="Ebene 1" xmlns="http://www.w3.org/2000/svg" viewBox="0 0 22 24">
  <defs>
    <style>
      .cls-1 {
        fill: #fff;
      }
    </style>
  </defs>
  <title>33d53ee8-58e0-4921-9a36-16db550eaaf5</title>
  <g>
    <rect class="cls-1" x="3" y="7" width="1" height="17"/>
    <rect class="cls-1" x="11" y="7" width="1" height="17"/>
    <rect class="cls-1" x="18" y="2" width="1" height="22"/>
    <path class="cls-1" d="M11.917,5C13,5,13,5.066,13,5.5A1.363,1.363,0,0,1,11.917,7H11.083A1.363,1.363,0,0,1,10,5.5C10,5.066,10,5,11.083,5h0.834m0-1H11.083C9.933,4,9,4.119,9,5.5A2.32,2.32,0,0,0,11.083,8h0.834A2.32,2.32,0,0,0,14,5.5C14,4.119,13.067,4,11.917,4h0Z"/>
    <rect class="cls-1" x="9" width="1" height="5"/>
    <rect class="cls-1" x="11" width="1" height="5"/>
    <rect class="cls-1" x="13" width="1" height="5"/>
    <path class="cls-1" d="M3.5,1C4.684,1,6,3.385,6,5,6,5.547,6,7,3.5,7S1,5.547,1,5C1,3.385,2.316,1,3.5,1m0-1C1.567,0,0,3,0,5,0,7.209,1.567,8,3.5,8S7,7.209,7,5C7,3,5.433,0,3.5,0h0Z"/>
    <path class="cls-1" d="M19,1.26a3.109,3.109,0,0,1,1.09,1.787l0.9,9.934a4.3,4.3,0,0,1-.485.02H19.491A4.352,4.352,0,0,1,19,12.981V1.729c0-.14,0-0.312,0-0.469M19,0c-1.1,0-1,.9-1,2V13c0,0.928.633,1,1.491,1L20,14l0.509,0C21.367,14,22,13.926,22,13L21.087,2.957A4.718,4.718,0,0,0,19,0h0Z"/>
  </g>
</svg>
