<svg id="Ebene_1" data-name="Ebene 1" xmlns="http://www.w3.org/2000/svg" viewBox="0 0 27.297 23.036">
  <defs>
    <style>
      .cls-1 {
        fill: #fff;
      }
    </style>
  </defs>
  <title>4b5c6a04-a201-44ea-9d38-0b041ff70049</title>
  <g>
    <path class="cls-1" d="M13.076,8.32a0.149,0.149,0,0,1,.041.031l0.762,0.763,0.713,0.714,0.092,0.09a0.147,0.147,0,0,1,.031.041,0.1,0.1,0,0,1-.027.044l-0.037.032a31.272,31.272,0,0,0-2.412,2.189C10.79,13.673,9.47,15.217,8.191,16.71c-1.253,1.466-2.548,2.982-3.939,4.374a2.747,2.747,0,0,1-.437.4,6.273,6.273,0,0,0-.66.486,0.349,0.349,0,0,1-.214.063,0.4,0.4,0,0,1-.277-0.1L1.1,20.371a0.446,0.446,0,0,1-.039-0.482,6.037,6.037,0,0,0,.494-0.672,2.747,2.747,0,0,1,.4-0.432c1.373-1.371,2.889-2.67,4.375-3.941,1.5-1.285,3.055-2.615,4.486-4.046A31.71,31.71,0,0,0,13.03,8.354a0.132,0.132,0,0,1,.046-0.033m0-1a1.065,1.065,0,0,0-.754.326,1.442,1.442,0,0,0-.1.109,30.327,30.327,0,0,1-2.119,2.335c-1.4,1.4-2.917,2.7-4.43,3.993s-3.025,2.59-4.431,3.993A7.143,7.143,0,0,0,.281,19.26a1.134,1.134,0,0,0-.154.246A1.432,1.432,0,0,0,.39,21.079c0.688,0.689.877,0.878,1.567,1.566a1.39,1.39,0,0,0,.983.391,1.342,1.342,0,0,0,.836-0.279,7.222,7.222,0,0,0,1.182-.966c1.4-1.4,2.7-2.917,3.993-4.432s2.59-3.024,3.995-4.428a30.562,30.562,0,0,1,2.335-2.12c0.038-.031.075-0.064,0.108-0.1a1.033,1.033,0,0,0,0-1.5l-0.1-.1L13.824,7.645a1.052,1.052,0,0,0-.747-0.324h0Z" transform="translate(0)"/>
    <path class="cls-1" d="M14.029,1C16.556,1.081,20.1,3.515,21.7,4.8a3.4,3.4,0,0,0,1.134,2.36,6.169,6.169,0,0,0,1.272,1L23.041,9.23a5.507,5.507,0,0,0-.934-1.524,3.818,3.818,0,0,0-2.488-1.1A2.091,2.091,0,0,0,18.1,7.21L17.119,8.2l-2.1-2.1L15.7,5.4l0.037-.037a2.428,2.428,0,0,0,.912-1.7,2.116,2.116,0,0,0-.709-1.5A4.638,4.638,0,0,0,14.029,1M13.9,0H13.845A12.3,12.3,0,0,0,7.353,2.037s-0.219.51,0.61,0.51a3.818,3.818,0,0,0,.779-0.1,17.019,17.019,0,0,1,3.652-.684,3.834,3.834,0,0,1,2.843,1.113c0.81,0.81.275,1.3-.24,1.818s-1.4,1.4-1.4,1.4L17.119,9.61l1.693-1.693A1.1,1.1,0,0,1,19.619,7.6a2.853,2.853,0,0,1,1.781.809c0.541,0.541,1.015,2.078,1.4,2.469l2.962-2.962L25.444,7.6h0a3.131,3.131,0,0,1-1.9-1.145,2.042,2.042,0,0,1-.787-2.079S17.66,0,13.9,0h0Z" transform="translate(0)"/>
    <rect class="cls-1" x="14.483" y="6.596" width="1" height="3" transform="translate(-1.336 12.968) rotate(-45.007)"/>
    <path class="cls-1" d="M25.59,8.1h0L26.3,8.8l-2.829,2.829-0.707-.708L25.589,8.1h0m0-1a1,1,0,0,0-.707.293l-2.829,2.828a1,1,0,0,0,0,1.415l0.707,0.707a1,1,0,0,0,1.414,0L27,9.51A1,1,0,0,0,27,8.1L26.3,7.389A1,1,0,0,0,25.59,7.1h0Z" transform="translate(0)"/>
  </g>
</svg>
