<svg id="Ebene_1" data-name="Ebene 1" xmlns="http://www.w3.org/2000/svg" viewBox="0 0 28 24">
  <defs>
    <style>
      .cls-1 {
        fill: #fff;
      }
    </style>
  </defs>
  <title>91a514c1-ea88-4b24-97b5-59e550fe64d2</title>
  <g>
    <path class="cls-1" d="M18,4h1V7A5,5,0,1,1,9,7V4h1V3H7V4H8V7A6,6,0,1,0,20,7V4h1V3H18V4Z"/>
    <path class="cls-1" d="M28,21L24,0H4L0,21l2,2H2.083L2,24H26l-0.083-1H26ZM1,21L3.222,9.333,2.154,22.154Zm2,2L5,1H23l2,22H3ZM24.777,9.333L27,21l-1.154,1.154Z"/>
  </g>
</svg>
